inDegrees=yes
name=ik_S41_A13_T02
DataType=double
version=3
OpenSimVersion=4.3-2021-08-27-4bc7ad9
endheader
time	pelvis_tilt	pelvis_list	pelvis_rotation	pelvis_tx	pelvis_ty	pelvis_tz	hip_flexion_r	hip_adduction_r	hip_rotation_r	knee_angle_r	knee_angle_r_beta	ankle_angle_r	subtalar_angle_r	mtp_angle_r	hip_flexion_l	hip_adduction_l	hip_rotation_l	knee_angle_l	knee_angle_l_beta	ankle_angle_l	subtalar_angle_l	mtp_angle_l	lumbar_extension	lumbar_bending	lumbar_rotation	arm_flex_r	arm_add_r	arm_rot_r	elbow_flex_r	pro_sup_r	wrist_flex_r	wrist_dev_r	arm_flex_l	arm_add_l	arm_rot_l	elbow_flex_l	pro_sup_l	wrist_flex_l	wrist_dev_l
0	0	0	0	0	0.9399999999999999	0	0	0	0	0	0	0	0	0	0	0	0	0	0	0	0	0	0	0	0	0	0	0	0	89.99999999963507	0	0	0	0	0	0	89.99999999869995	0	0
0.02	0.4605221388357343	-1.94709648085998	39.0985260394102	0	0.9399999999999999	0	1.502124255242469	-0.7225007188002336	-0.504323727876089	2.344307345971208	0.0409158818658874	0	0	0	1.502124255242469	-0.7225007188002336	-0.504323727876089	2.344307345971208	0.0409158818658874	0	0	0	1.213723172130853	0.07146449732744223	17.45299402948208	16.89922658085296	-2.257554445800265	14.74582794079485	6.363797859827604	143.8537569576767	0	0	14.11139796513532	6.228758467150315	14.78982270643997	6.826558824839738	136.0157565360049	0	0
0.04	0.4540002778350249	-1.954559613250131	39.10891180684313	0	0.9399999999999999	0	1.581658794330775	-0.7636237626627087	-0.5328697616924279	2.44061672504094	0.04259679763120554	0	0	0	1.581658794330775	-0.7636237626627087	-0.5328697616924279	2.44061672504094	0.04259679763120554	0	0	0	1.201871451907613	0.06795558440331818	17.43757905416802	16.89896341521956	-2.269959878932935	14.7836945976002	6.392407781749123	143.8303374735979	0	0	14.11032747559299	6.235768667554851	14.78766025973558	6.8525601269264	135.9978786326425	0	0
0.06	0.478001353546321	-1.931009651349997	39.39731043743607	0	0.9399999999999999	0	3.506677547495487	-1.677731606868279	-1.225260659710886	4.619612052060138	0.08062744047326111	0	0	0	3.506677547495487	-1.677731606868279	-1.225260659710886	4.619612052060138	0.08062744047326111	0	0	0	1.16877860874155	0.05030423011218815	17.14508735177035	16.89733699183969	-2.246851044115754	14.80502395735418	6.35052396457855	143.826228945185	0	0	14.10665579850238	6.237834027309225	14.80948479707511	6.834604284883752	135.989200973504	0	0
0.08	0.4825025071354948	-1.913361545485058	39.63447342223343	0	0.9399999999999999	0	4.832860835137088	-2.270775694994525	-1.692187379787634	5.985169960380762	0.1044609221001029	0	0	0	4.832860835137088	-2.270775694994525	-1.692187379787634	5.985169960380762	0.1044609221001029	0	0	0	1.143467350461942	0.02301801141461365	16.88172296528609	16.89032732092261	-2.277021221342881	14.79941946021831	6.378242447096865	143.8524240463219	0	0	14.11899689445044	6.2292499392914	14.7934365357096	6.814818565386807	135.9814707206938	0	0
0.1	0.4740351758289954	-1.938884226516479	39.86941359622686	0	0.9399999999999999	0	5.902890596189573	-2.725689818114049	-2.06197045088681	7.042303689092947	0.122911386300015	0	0	0	5.902890596189573	-2.725689818114049	-2.06197045088681	7.042303689092947	0.122911386300015	0	0	0	1.081783697992913	-0.01071109081450233	16.64900923724634	16.98419900862126	-2.259332156720393	14.7935795508519	6.358102384460259	143.8781406644022	0	0	14.19194085223504	6.228001342388209	14.83246446583663	6.82339820720485	135.9538313423094	0	0
0.12	0.4829365425158015	-1.94281654692548	40.07052624647918	0	0.9399999999999999	0	6.889787910890297	-3.13044821864303	-2.397367046330476	8.006228617290367	0.1397350500391099	0	0	0	6.889787910890297	-3.13044821864303	-2.397367046330476	8.006228617290367	0.1397350500391099	0	0	0	1.048332425883354	-0.03816688911622133	16.45177970041141	17.00483094642174	-2.251999871419937	14.77069480860072	6.346342853912688	143.8525861398761	0	0	14.20304967746159	6.212314300010335	14.90429695297881	6.833118609435677	135.8742514181031	0	0
0.14	0.4831215598831491	-1.939501898578076	40.23874838712102	0	0.9399999999999999	0	7.789378623855781	-3.488381186751569	-2.698304557530185	8.885166975394066	0.1550754183100924	0	0	0	7.789378623855781	-3.488381186751569	-2.698304557530185	8.885166975394066	0.1550754183100924	0	0	0	1.020742283089713	-0.06248095142096016	16.27585569493001	17.01926215082619	-2.248013784082194	14.74188065247817	6.336312360011124	143.8932477116494	0	0	14.24257444084138	6.225862758397247	14.93393878064788	6.799254354912839	135.8911869527978	0	0
0.16	0.4704754808098205	-1.97140538429986	40.40441903978624	0	0.9399999999999999	0	8.538611728492608	-3.779846177973567	-2.945237273424236	9.630091581661651	0.1680768053685842	0	0	0	8.538611728492608	-3.779846177973567	-2.945237273424236	9.630091581661651	0.1680768053685842	0	0	0	0.9660884783950108	-0.09884400850785206	16.1190352084054	17.12064622246071	-2.246688741169009	14.71302621546336	6.335760058906332	143.891887125807	0	0	14.31965613668319	6.216690899636474	14.96289394764206	6.806739862392317	135.9254872226822	0	0
0.18	0.4700321685908892	-1.967406453723117	40.54487705501965	0	0.9399999999999999	0	9.33965922064527	-4.087422876232021	-3.206861562292476	10.43246508962432	0.1820808649133097	0	0	0	9.33965922064527	-4.087422876232021	-3.206861562292476	10.43246508962432	0.1820808649133097	0	0	0	0.9431763257160902	-0.121280378117724	15.98920937263764	17.14007794706484	-2.255166180927595	14.69782830025541	6.301071486452448	143.9299592024126	0	0	14.36563613781252	6.226567047604971	14.99132555013898	6.770170612961707	135.9723835823773	0	0
0.2	0.4716819128058168	-1.948791986116496	40.66362760357083	0	0.9399999999999999	0	10.03816306808692	-4.346371377033772	-3.431488254007732	11.13289071319704	0.1943055982099881	0	0	0	10.03816306808692	-4.346371377033772	-3.431488254007732	11.13289071319704	0.1943055982099881	0	0	0	0.9354689172536894	-0.1349639541613892	15.87072359996334	17.13513778222423	-2.274296411510241	14.66985836282277	6.346088710953726	143.9284830475872	0	0	14.33433328067492	6.243302149639033	15.01046098896111	6.809622447691507	135.9707021517387	0	0
0.22	0.4643642353358446	-1.963195822999922	40.7821082980554	0	0.9399999999999999	0	10.65012710880178	-4.568199858559711	-3.625940985130843	11.75042126470004	0.2050835395653719	0	0	0	10.65012710880178	-4.568199858559711	-3.625940985130843	11.75042126470004	0.2050835395653719	0	0	0	0.9001558551494573	-0.159267619684009	15.74015557689676	17.18661139312545	-2.274280610715786	14.65414742828361	6.354298176938491	143.9291498362909	0	0	14.38850346723812	6.232749139618229	15.00021393750065	6.820390612007787	135.9898034556759	0	0
0.24	0.4603094193291996	-1.96472083567091	40.89071588650752	0	0.9399999999999999	0	11.2452992057439	-4.778953478985302	-3.81293124580698	12.3506140254022	0.215558879386259	0	0	0	11.2452992057439	-4.778953478985302	-3.81293124580698	12.3506140254022	0.215558879386259	0	0	0	0.8764094312023842	-0.1769013299045806	15.63034612192021	17.21605519575524	-2.279040557597153	14.63218193163746	6.367767058915359	143.9294247084351	0	0	14.41481145053742	6.233213295974887	15.01952004981825	6.821330790816	135.9866574903192	0	0
0.26	0.4667327510840132	-1.967387925089729	41.00404117598374	0	0.9399999999999999	0	11.81352942254107	-4.973633870848318	-3.988949047136642	12.92283208577396	0.2255459685791218	0	0	0	11.81352942254107	-4.973633870848318	-3.988949047136642	12.92283208577396	0.2255459685791218	0	0	0	0.860571007318282	-0.1992341627038569	15.53007076680209	17.23600167677598	-2.278291023971306	14.6070746717313	6.34831110140563	143.9311591550563	0	0	14.44358511075933	6.211989400485721	15.0454063992016	6.817880098224357	136.0005508345873	0	0
0.28	0.4669565295745471	-1.951677340932915	41.09522631707035	0	0.9399999999999999	0	12.33497267632653	-5.148532732150094	-4.148771214189508	13.44824334049763	0.2347161249010845	0	0	0	12.33497267632653	-5.148532732150094	-4.148771214189508	13.44824334049763	0.2347161249010845	0	0	0	0.8540084766006436	-0.2067205019083862	15.44423741799726	17.23916206560193	-2.282797512508134	14.61850319364137	6.300602286280323	143.896218472766	0	0	14.42802324639027	6.257000521229697	15.11217723276402	6.803855620073922	135.9674669537054	0	0
0.3	0.4636391603098931	-1.965731066484621	41.10281747943127	0	0.9399999999999999	0	12.38786692749642	-5.165915673983644	-4.164944823878949	13.50064216336717	0.2356306568843272	0	0	0	12.38786692749642	-5.165915673983644	-4.164944823878949	13.50064216336717	0.2356306568843272	0	0	0	0.8411475595536946	-0.2169300454996267	15.46625567528117	17.29322575133476	-2.307142633527859	14.51595589164371	6.286169591615669	143.9867008541883	0	0	14.47588252463534	6.243324590187982	15.1428527611333	6.802878570809765	136.060311452094	0	0
0.32	0.4606068800899036	-1.975084696066442	41.14919791317646	0	0.9399999999999999	0	12.52757280348916	-5.209529502027289	-4.206834861134174	13.6393770366577	0.2380520372105842	0	0	0	12.52757280348916	-5.209529502027289	-4.206834861134174	13.6393770366577	0.2380520372105842	0	0	0	0.8284237302712253	-0.2272341968120336	15.45139508003835	17.33637827633767	-2.318146595147652	14.4744712312778	6.320329404544524	143.9703518815734	0	0	14.47880813576957	6.25171151513805	15.1828749050334	6.841595611636673	136.0508133869501	0	0
0.34	0.4553317867599505	-1.987051998018801	41.19106170724196	0	0.9399999999999999	0	12.59527229558733	-5.229568747626019	-4.226849202427288	13.70409152643981	0.2391815181310302	0	0	0	12.59527229558733	-5.229568747626019	-4.226849202427288	13.70409152643981	0.2391815181310302	0	0	0	0.8143622083818152	-0.2355270859406196	15.44377469086629	17.36004369633571	-2.327658126266866	14.46753072606427	6.29688672187179	144.0045068044481	0	0	14.51856956268235	6.258954609156225	15.23621464353727	6.837730401348812	136.1050582405921	0	0
0.36	0.4547055537379879	-1.977432288207899	41.31487169069278	0	0.9399999999999999	0	13.07798441481566	-5.389626540062185	-4.37330698894475	14.19797276017461	0.2478013717735142	0	0	0	13.07798441481566	-5.389626540062185	-4.37330698894475	14.19797276017461	0.2478013717735142	0	0	0	0.8048714315408511	-0.2469294442667578	15.35348483780638	17.3604448842006	-2.333353483747154	14.45888268877521	6.322809830650541	144.037947512036	0	0	14.50553517951928	6.25679730398905	15.25643843224925	6.891895697877715	136.1677143774187	0	0
0.3800000000000001	0.4577432990428096	-1.959292127913705	41.43514117877208	0	0.9399999999999999	0	13.57006835756567	-5.546308366825377	-4.520241711572096	14.69829759059421	0.2565336873938185	0	0	0	13.57006835756567	-5.546308366825377	-4.520241711572096	14.69829759059421	0.2565336873938185	0	0	0	0.8008908576180064	-0.2533651478979332	15.23840720992484	17.38965653808812	-2.339833198308809	14.51146682519935	6.291876429663558	143.9763120802172	0	0	14.47278066975266	6.253702171649983	15.27083778669601	6.902964561775399	136.1060066255372	0	0
0.4000000000000001	0.4410382309286952	-1.97918596728683	41.48556226991977	0	0.9399999999999999	0	13.63180340583312	-5.565438069661145	-4.538559466220274	14.7600450728895	0.2576113842646881	0	0	0	13.63180340583312	-5.565438069661145	-4.538559466220274	14.7600450728895	0.2576113842646881	0	0	0	0.7729709964012972	-0.2593963144103379	15.22498329558502	17.4457644051748	-2.352879300191737	14.47074375810223	6.323666649936236	144.1356812852654	0	0	14.53114000278942	6.275918171388847	15.28290589520286	6.923395515840171	136.1917633169654	0	0
